# xmcd CD database file
#
# Track frame offsets:
#	150
#	12137
#	27087
#	40227
#	53342
#	72552
#	88112
#	107345
#	122272
#	136850
#	152942
#	168095
#
# Disc length: 2432 seconds
#
# Revision: 0
# Processed by: cddbd v1.5.1PL0 Copyright (c) Steve Scherf et al.
# Submitted via: CDex 1.51
#
DISCID=87097e0c
DTITLE=Robert Steubl - A Fireman's Life
DYEAR=1994
DGENRE=Country
TTITLE0=East bound and down
TTITLE1=The greatest country music fan
TTITLE2=Wähl den Notruf
TTITLE3=Forget your pain
TTITLE4=Feuerwehrblues
TTITLE5=Play Bluegrass for me
TTITLE6=Four Roses ballade
TTITLE7=Gös'ndippl
TTITLE8=Singin' Guitar's Pickin'Banjos
TTITLE9=Firemans Life - Firemans Fight
TTITLE10=Mein Job is "On the road"
TTITLE11=Sally was a good old girl
EXTD=YEAR: 1994
EXTT0=
EXTT1=
EXTT2=
EXTT3=
EXTT4=
EXTT5=
EXTT6=
EXTT7=
EXTT8=
EXTT9=
EXTT10=
EXTT11=
PLAYORDER=
